<?xml version="1.0" encoding="UTF-8" standalone="no"?>
<!-- Created with Inkscape (http://www.inkscape.org/) -->

<svg
   xmlns:dc="http://purl.org/dc/elements/1.1/"
   xmlns:cc="http://creativecommons.org/ns#"
   xmlns:rdf="http://www.w3.org/1999/02/22-rdf-syntax-ns#"
   xmlns:svg="http://www.w3.org/2000/svg"
   xmlns="http://www.w3.org/2000/svg"
   xmlns:sodipodi="http://sodipodi.sourceforge.net/DTD/sodipodi-0.dtd"
   xmlns:inkscape="http://www.inkscape.org/namespaces/inkscape"
   width="210mm"
   height="297mm"
   viewBox="0 0 210 297"
   version="1.1"
   id="svg8"
   inkscape:version="0.92.0 r15299"
   sodipodi:docname="kasiski.svg">
  <defs
     id="defs2" />
  <sodipodi:namedview
     id="base"
     pagecolor="#ffffff"
     bordercolor="#666666"
     borderopacity="1.0"
     inkscape:pageopacity="0.0"
     inkscape:pageshadow="2"
     inkscape:zoom="0.35"
     inkscape:cx="400"
     inkscape:cy="560"
     inkscape:document-units="mm"
     inkscape:current-layer="layer1"
     showgrid="false"
     inkscape:window-width="1920"
     inkscape:window-height="1017"
     inkscape:window-x="1912"
     inkscape:window-y="-8"
     inkscape:window-maximized="1" />
  <metadata
     id="metadata5">
    <rdf:RDF>
      <cc:Work
         rdf:about="">
        <dc:format>image/svg+xml</dc:format>
        <dc:type
           rdf:resource="http://purl.org/dc/dcmitype/StillImage" />
        <dc:title></dc:title>
      </cc:Work>
    </rdf:RDF>
  </metadata>
  <g
     inkscape:label="Layer 1"
     inkscape:groupmode="layer"
     id="layer1">
    <g
       aria-label="Kasiski"
       transform="scale(0.86602543,1.1547005)"
       style="font-style:normal;font-weight:normal;font-size:36.66173935px;line-height:22.91358757px;font-family:sans-serif;letter-spacing:0px;word-spacing:0px;fill:#000000;fill-opacity:1;stroke:none;stroke-width:0.91654348"
       id="text12">
      <path
         d="m 82.223807,134.548 h -4.600619 l -10.54383,-11.86852 -2.649384,2.8284 v 9.04012 h -3.544445 v -26.65494 h 3.544445 v 13.90926 l 12.942597,-13.90926 h 4.296297 l -11.904324,12.53087 z"
         style="fill:#ff0000;stroke-width:0.91654348"
         id="path22" />
      <path
         d="m 100.41147,134.548 h -3.347536 v -2.13024 q -0.447531,0.30432 -1.217284,0.85926 -0.751852,0.53703 -1.467902,0.85926 -0.841358,0.41172 -1.933334,0.68024 -1.091975,0.28642 -2.559877,0.28642 -2.703087,0 -4.582717,-1.79012 -1.879631,-1.79013 -1.879631,-4.56482 0,-2.27346 0.966667,-3.66975 0.984569,-1.4142 2.792594,-2.21976 1.825926,-0.80555 4.385804,-1.09197 2.559877,-0.28642 5.49568,-0.42963 v -0.51914 q 0,-1.14568 -0.411728,-1.89753 -0.393828,-0.75185 -1.14568,-1.18148 -0.716049,-0.41173 -1.718519,-0.55494 -1.002469,-0.14321 -2.094445,-0.14321 -1.324691,0 -2.953704,0.35803 -1.629013,0.34012 -3.365433,1.00247 h -0.179013 v -3.41914 q 0.984568,-0.26852 2.846297,-0.59074 1.861729,-0.32222 3.669755,-0.32222 2.112346,0 3.669754,0.35802 1.575309,0.34012 2.720988,1.18148 1.127778,0.82346 1.718519,2.13025 0.590745,1.30679 0.590745,3.24012 z m -3.347536,-4.92284 v -5.56728 q -1.539506,0.0895 -3.633951,0.26852 -2.076544,0.17901 -3.293829,0.51913 -1.45,0.41173 -2.345062,1.28889 -0.895062,0.85926 -0.895062,2.38087 0,1.71852 1.038272,2.59568 1.038272,0.85926 3.168519,0.85926 1.772223,0 3.240125,-0.68025 1.467901,-0.69815 2.720988,-1.66482 z"
         style="fill:#ff0000;stroke-width:0.91654348"
         id="path24" />
      <path
         d="m 121.21271,128.7838 q 0,2.73889 -2.27346,4.49322 -2.25556,1.75432 -6.17593,1.75432 -2.21975,0 -4.08148,-0.51914 -1.84383,-0.53704 -3.09692,-1.16358 v -3.77716 h 0.17902 q 1.59321,1.19938 3.54444,1.91543 1.95124,0.69815 3.74136,0.69815 2.21975,0 3.47284,-0.71605 1.25309,-0.71605 1.25309,-2.25556 0,-1.18148 -0.68025,-1.79012 -0.68025,-0.60864 -2.61358,-1.03827 -0.71605,-0.16111 -1.87963,-0.37593 -1.14568,-0.21481 -2.09445,-0.46543 -2.63148,-0.69815 -3.74135,-2.04074 -1.09198,-1.3605 -1.09198,-3.32963 0,-1.23519 0.50123,-2.32716 0.51914,-1.09198 1.55741,-1.95124 1.00247,-0.84136 2.54198,-1.32469 1.55741,-0.50123 3.47284,-0.50123 1.79012,0 3.61605,0.44753 1.84383,0.42963 3.06111,1.05617 v 3.59815 h -0.17901 q -1.28889,-0.94877 -3.13272,-1.59321 -1.84383,-0.66235 -3.61605,-0.66235 -1.84383,0 -3.11481,0.71605 -1.27099,0.69815 -1.27099,2.09445 0,1.23518 0.76975,1.86173 0.75185,0.62654 2.43457,1.02037 0.93086,0.21481 2.07654,0.42963 1.16358,0.21481 1.93334,0.39382 2.34506,0.53704 3.61605,1.84383 1.27099,1.32469 1.27099,3.50864 z"
         style="fill:#ff0000;stroke-width:0.91654348"
         id="path26" />
      <path
         d="m 129.66209,111.20479 h -3.79506 v -3.49074 h 3.79506 z m -0.21481,23.34321 h -3.36543 v -19.99568 h 3.36543 z"
         style="fill:#ff0000;stroke-width:0.91654348"
         id="path28" />
      <path
         d="m 150.28432,128.7838 q 0,2.73889 -2.27346,4.49322 -2.25555,1.75432 -6.17593,1.75432 -2.21975,0 -4.08148,-0.51914 -1.84383,-0.53704 -3.09691,-1.16358 v -3.77716 h 0.17901 q 1.59321,1.19938 3.54445,1.91543 1.95123,0.69815 3.74135,0.69815 2.21976,0 3.47284,-0.71605 1.25309,-0.71605 1.25309,-2.25556 0,-1.18148 -0.68025,-1.79012 -0.68024,-0.60864 -2.61358,-1.03827 -0.71605,-0.16111 -1.87963,-0.37593 -1.14568,-0.21481 -2.09444,-0.46543 -2.63148,-0.69815 -3.74136,-2.04074 -1.09198,-1.3605 -1.09198,-3.32963 0,-1.23519 0.50124,-2.32716 0.51913,-1.09198 1.55741,-1.95124 1.00247,-0.84136 2.54197,-1.32469 1.55741,-0.50123 3.47284,-0.50123 1.79013,0 3.61605,0.44753 1.84383,0.42963 3.06112,1.05617 v 3.59815 h -0.17902 q -1.28889,-0.94877 -3.13271,-1.59321 -1.84383,-0.66235 -3.61605,-0.66235 -1.84383,0 -3.11482,0.71605 -1.27099,0.69815 -1.27099,2.09445 0,1.23518 0.76975,1.86173 0.75186,0.62654 2.43457,1.02037 0.93087,0.21481 2.07655,0.42963 1.16358,0.21481 1.93333,0.39382 2.34506,0.53704 3.61605,1.84383 1.27099,1.32469 1.27099,3.50864 z"
         style="fill:#ff0000;stroke-width:0.91654348"
         id="path30" />
      <path
         d="M 173.26951,134.548 H 168.83 l -8.01975,-8.7537 -2.18395,2.07654 v 6.67716 h -3.36544 v -27.85433 h 3.36544 v 17.86544 l 9.72037,-10.00679 h 4.24259 l -9.29074,9.23704 z"
         style="fill:#ff0000;stroke-width:0.91654348"
         id="path32" />
      <path
         d="m 180.43001,111.20479 h -3.79507 v -3.49074 h 3.79507 z m -0.21482,23.34321 h -3.36543 v -19.99568 h 3.36543 z"
         style="fill:#ff0000;stroke-width:0.91654348"
         id="path34" />
    </g>
  </g>
</svg>
