<?xml version="1.0" encoding="UTF-8" standalone="no"?>
<!-- Created with Inkscape (http://www.inkscape.org/) -->

<svg
   xmlns:dc="http://purl.org/dc/elements/1.1/"
   xmlns:cc="http://creativecommons.org/ns#"
   xmlns:rdf="http://www.w3.org/1999/02/22-rdf-syntax-ns#"
   xmlns:svg="http://www.w3.org/2000/svg"
   xmlns="http://www.w3.org/2000/svg"
   xmlns:sodipodi="http://sodipodi.sourceforge.net/DTD/sodipodi-0.dtd"
   xmlns:inkscape="http://www.inkscape.org/namespaces/inkscape"
   width="210mm"
   height="297mm"
   viewBox="0 0 210 297"
   version="1.1"
   id="svg8"
   inkscape:version="0.92.0 r15299"
   sodipodi:docname="permutation.svg">
  <defs
     id="defs2" />
  <sodipodi:namedview
     id="base"
     pagecolor="#ffffff"
     bordercolor="#666666"
     borderopacity="1.0"
     inkscape:pageopacity="0.0"
     inkscape:pageshadow="2"
     inkscape:zoom="0.35"
     inkscape:cx="400"
     inkscape:cy="560"
     inkscape:document-units="mm"
     inkscape:current-layer="layer1"
     showgrid="false"
     inkscape:window-width="1920"
     inkscape:window-height="1017"
     inkscape:window-x="1912"
     inkscape:window-y="-8"
     inkscape:window-maximized="1" />
  <metadata
     id="metadata5">
    <rdf:RDF>
      <cc:Work
         rdf:about="">
        <dc:format>image/svg+xml</dc:format>
        <dc:type
           rdf:resource="http://purl.org/dc/dcmitype/StillImage" />
        <dc:title></dc:title>
      </cc:Work>
    </rdf:RDF>
  </metadata>
  <g
     inkscape:label="Layer 1"
     inkscape:groupmode="layer"
     id="layer1">
    <g
       aria-label="Pemutation"
       transform="scale(0.86602542,1.1547005)"
       style="font-style:normal;font-weight:normal;font-size:36.66173935px;line-height:22.91358757px;font-family:sans-serif;letter-spacing:0px;word-spacing:0px;fill:#ff0000;fill-opacity:1;stroke:none;stroke-width:0.91654348"
       id="text12">
      <path
         d="m 36.966066,118.83933 q 0,1.77223 -0.626543,3.29383 -0.608643,1.5037 -1.718519,2.61358 -1.378396,1.3784 -3.258026,2.07655 -1.87963,0.68024 -4.743829,0.68024 h -3.544445 v 9.93519 h -3.544446 v -26.65495 h 7.232101 q 2.398766,0 4.063582,0.41173 1.664815,0.39383 2.953704,1.25309 1.521606,1.02037 2.345063,2.54198 0.841358,1.5216 0.841358,3.84876 z m -3.687655,0.0895 q 0,-1.3784 -0.483334,-2.39877 -0.483333,-1.02037 -1.467902,-1.66481 -0.859259,-0.55494 -1.969136,-0.78766 -1.091976,-0.25061 -2.774692,-0.25061 h -3.508643 v 10.65123 h 2.989507 q 2.148149,0 3.490742,-0.37592 1.342593,-0.39383 2.183951,-1.23519 0.841358,-0.85926 1.181482,-1.80802 0.358025,-0.94877 0.358025,-2.13025 z"
         style="fill:#ff0000;stroke-width:0.91654348"
         id="path14" />
      <path
         d="m 57.266071,127.78995 h -14.73272 q 0,1.84383 0.554938,3.22223 0.554939,1.36049 1.521606,2.23765 0.930864,0.85926 2.201852,1.28889 1.288889,0.42963 2.828396,0.42963 2.040741,0 4.099384,-0.80556 2.076544,-0.82345 2.953704,-1.61111 h 0.179013 v 3.66976 q -1.700618,0.71605 -3.472841,1.19938 -1.772222,0.48333 -3.723458,0.48333 -4.976544,0 -7.769138,-2.68518 -2.792593,-2.70309 -2.792593,-7.66173 0,-4.90494 2.667285,-7.78704 2.685186,-2.8821 7.053088,-2.8821 4.04568,0 6.229632,2.36296 2.201852,2.36296 2.201852,6.71297 z m -3.275927,-2.57778 q -0.0179,-2.64938 -1.342593,-4.09938 -1.30679,-1.45 -3.991976,-1.45 -2.703087,0 -4.314199,1.59321 -1.59321,1.59321 -1.808025,3.95617 z"
         style="fill:#ff0000;stroke-width:0.91654348"
         id="path16" />
      <path
         d="m 91.546947,137.43872 h -3.365433 v -11.38519 q 0,-1.28889 -0.125309,-2.48827 -0.107408,-1.19938 -0.483334,-1.91543 -0.411728,-0.76976 -1.181481,-1.16358 -0.769754,-0.39383 -2.219754,-0.39383 -1.414198,0 -2.828396,0.71605 -1.414198,0.69815 -2.828396,1.79012 0.0537,0.41173 0.08951,0.96667 0.0358,0.53704 0.0358,1.07407 v 12.79939 H 75.27472 v -11.38519 q 0,-1.32469 -0.125309,-2.50617 -0.107408,-1.19938 -0.483334,-1.91543 -0.411728,-0.76976 -1.181481,-1.14568 -0.769754,-0.39383 -2.219754,-0.39383 -1.378396,0 -2.774692,0.68025 -1.378396,0.68024 -2.756791,1.73642 v 14.92963 h -3.365433 v -19.99568 h 3.365433 v 2.21975 q 1.575309,-1.30679 3.132717,-2.04074 1.575309,-0.73395 3.347532,-0.73395 2.040741,0 3.454939,0.85926 1.432099,0.85926 2.130247,2.38086 2.040742,-1.71852 3.723458,-2.47037 1.682717,-0.76975 3.59815,-0.76975 3.293828,0 4.851236,2.00494 1.575309,1.98703 1.575309,5.56728 z"
         style="fill:#ff0000;stroke-width:0.91654348"
         id="path18" />
      <path
         d="m 114.60375,137.43872 h -3.36544 v -2.21975 q -1.70062,1.34259 -3.25802,2.05864 -1.55741,0.71605 -3.43704,0.71605 -3.15062,0 -4.904942,-1.91543 -1.754321,-1.93334 -1.754321,-5.6568 v -12.97839 h 3.365433 v 11.38518 q 0,1.52161 0.14321,2.61359 0.14321,1.07407 0.60864,1.84382 0.48334,0.78766 1.25309,1.14568 0.76975,0.35803 2.23765,0.35803 1.30679,0 2.8463,-0.68025 1.55741,-0.68025 2.9,-1.73642 v -14.92963 h 3.36544 z"
         style="fill:#ff0000;stroke-width:0.91654348"
         id="path20" />
      <path
         d="m 131.60992,137.25971 q -0.94877,0.25062 -2.07654,0.41173 -1.10988,0.16111 -1.98704,0.16111 -3.06111,0 -4.65432,-1.64692 -1.59321,-1.64691 -1.59321,-5.28086 v -10.63334 h -2.27346 v -2.82839 h 2.27346 v -5.7463 h 3.36543 v 5.7463 h 6.94568 v 2.82839 h -6.94568 v 9.11173 q 0,1.57531 0.0716,2.47037 0.0716,0.87716 0.50124,1.64692 0.39383,0.71605 1.07407,1.05617 0.69815,0.32222 2.11235,0.32222 0.82346,0 1.71852,-0.23271 0.89506,-0.25062 1.28889,-0.41173 h 0.17901 z"
         style="fill:#ff0000;stroke-width:0.91654348"
         id="path22" />
      <path
         d="m 151.22968,137.43872 h -3.34753 v -2.13025 q -0.44753,0.30432 -1.21729,0.85926 -0.75185,0.53704 -1.4679,0.85926 -0.84136,0.41173 -1.93333,0.68025 -1.09198,0.28642 -2.55988,0.28642 -2.70309,0 -4.58272,-1.79012 -1.87963,-1.79013 -1.87963,-4.56482 0,-2.27346 0.96667,-3.66976 0.98457,-1.41419 2.79259,-2.21975 1.82593,-0.80555 4.38581,-1.09197 2.55988,-0.28642 5.49568,-0.42963 v -0.51914 q 0,-1.14568 -0.41173,-1.89753 -0.39383,-0.75185 -1.14568,-1.18148 -0.71605,-0.41173 -1.71852,-0.55494 -1.00247,-0.14321 -2.09444,-0.14321 -1.3247,0 -2.95371,0.35802 -1.62901,0.34013 -3.36543,1.00247 h -0.17901 v -3.41913 q 0.98456,-0.26852 2.84629,-0.59075 1.86173,-0.32222 3.66976,-0.32222 2.11234,0 3.66975,0.35803 1.57531,0.34012 2.72099,1.18148 1.12778,0.82346 1.71852,2.13025 0.59074,1.30679 0.59074,3.24012 z m -3.34753,-4.92284 v -5.56729 q -1.53951,0.0895 -3.63395,0.26852 -2.07655,0.17902 -3.29383,0.51914 -1.45,0.41173 -2.34506,1.28889 -0.89507,0.85926 -0.89507,2.38086 0,1.71852 1.03828,2.59568 1.03827,0.85926 3.16852,0.85926 1.77222,0 3.24012,-0.68024 1.4679,-0.69815 2.72099,-1.66482 z"
         style="fill:#ff0000;stroke-width:0.91654348"
         id="path24" />
      <path
         d="m 168.12845,137.25971 q -0.94876,0.25062 -2.07654,0.41173 -1.10988,0.16111 -1.98704,0.16111 -3.06111,0 -4.65432,-1.64692 -1.59321,-1.64691 -1.59321,-5.28086 v -10.63334 h -2.27346 v -2.82839 h 2.27346 v -5.7463 h 3.36543 v 5.7463 h 6.94568 v 2.82839 h -6.94568 v 9.11173 q 0,1.57531 0.0716,2.47037 0.0716,0.87716 0.50123,1.64692 0.39383,0.71605 1.07408,1.05617 0.69814,0.32222 2.11234,0.32222 0.82346,0 1.71852,-0.23271 0.89506,-0.25062 1.28889,-0.41173 h 0.17901 z"
         style="fill:#ff0000;stroke-width:0.91654348"
         id="path26" />
      <path
         d="m 175.82599,114.0955 h -3.79507 v -3.49074 h 3.79507 z m -0.21482,23.34322 h -3.36543 v -19.99568 h 3.36543 z"
         style="fill:#ff0000;stroke-width:0.91654348"
         id="path28" />
      <path
         d="m 199.205,127.44983 q 0,4.88704 -2.50618,7.71543 -2.50617,2.8284 -6.71296,2.8284 -4.2426,0 -6.74877,-2.8284 -2.48827,-2.82839 -2.48827,-7.71543 0,-4.88704 2.48827,-7.71544 2.50617,-2.84629 6.74877,-2.84629 4.20679,0 6.71296,2.84629 2.50618,2.8284 2.50618,7.71544 z m -3.47284,0 q 0,-3.88457 -1.52161,-5.7642 -1.52161,-1.89753 -4.22469,-1.89753 -2.73889,0 -4.2605,1.89753 -1.5037,1.87963 -1.5037,5.7642 0,3.75926 1.5216,5.71049 1.52161,1.93334 4.2426,1.93334 2.68518,0 4.20679,-1.91543 1.53951,-1.93334 1.53951,-5.7284 z"
         style="fill:#ff0000;stroke-width:0.91654348"
         id="path30" />
      <path
         d="m 221.15192,137.43872 h -3.36543 v -11.38519 q 0,-1.37839 -0.16111,-2.57778 -0.16111,-1.21728 -0.59074,-1.89753 -0.44753,-0.75185 -1.28889,-1.10987 -0.84136,-0.37593 -2.18395,-0.37593 -1.3784,0 -2.8821,0.68025 -1.50371,0.68024 -2.8821,1.73642 v 14.92963 h -3.36543 v -19.99568 h 3.36543 v 2.21975 q 1.57531,-1.30679 3.25802,-2.04074 1.68272,-0.73395 3.45494,-0.73395 3.24013,0 4.94075,1.95123 1.70061,1.95124 1.70061,5.62099 z"
         style="fill:#ff0000;stroke-width:0.91654348"
         id="path32" />
    </g>
  </g>
</svg>
