<?xml version="1.0" encoding="UTF-8" standalone="no"?>
<!-- Created with Inkscape (http://www.inkscape.org/) -->

<svg
   xmlns:dc="http://purl.org/dc/elements/1.1/"
   xmlns:cc="http://creativecommons.org/ns#"
   xmlns:rdf="http://www.w3.org/1999/02/22-rdf-syntax-ns#"
   xmlns:svg="http://www.w3.org/2000/svg"
   xmlns="http://www.w3.org/2000/svg"
   xmlns:sodipodi="http://sodipodi.sourceforge.net/DTD/sodipodi-0.dtd"
   xmlns:inkscape="http://www.inkscape.org/namespaces/inkscape"
   width="210mm"
   height="297mm"
   viewBox="0 0 210 297"
   version="1.1"
   id="svg8"
   inkscape:version="0.92.0 r15299"
   sodipodi:docname="permutation.svg">
  <defs
     id="defs2" />
  <sodipodi:namedview
     id="base"
     pagecolor="#ffffff"
     bordercolor="#666666"
     borderopacity="1.0"
     inkscape:pageopacity="0.0"
     inkscape:pageshadow="2"
     inkscape:zoom="0.35"
     inkscape:cx="400"
     inkscape:cy="560"
     inkscape:document-units="mm"
     inkscape:current-layer="text12"
     showgrid="false"
     inkscape:window-width="1920"
     inkscape:window-height="1017"
     inkscape:window-x="-8"
     inkscape:window-y="-8"
     inkscape:window-maximized="1" />
  <metadata
     id="metadata5">
    <rdf:RDF>
      <cc:Work
         rdf:about="">
        <dc:format>image/svg+xml</dc:format>
        <dc:type
           rdf:resource="http://purl.org/dc/dcmitype/StillImage" />
        <dc:title />
      </cc:Work>
    </rdf:RDF>
  </metadata>
  <g
     inkscape:label="Layer 1"
     inkscape:groupmode="layer"
     id="layer1">
    <g
       aria-label="Pemutation"
       transform="scale(0.86602542,1.1547005)"
       style="font-style:normal;font-weight:normal;font-size:36.66173935px;line-height:22.91358757px;font-family:sans-serif;letter-spacing:0px;word-spacing:0px;fill:#ff0000;fill-opacity:1;stroke:none;stroke-width:0.91654348"
       id="text12">
      <g
         aria-label="Permutation"
         transform="scale(0.94280901,1.0606602)"
         style="font-style:normal;font-weight:normal;font-size:25.92376518px;line-height:16.20235443px;font-family:sans-serif;letter-spacing:0px;word-spacing:0px;fill:#ff0000;fill-opacity:1;stroke:none;stroke-width:0.59400648"
         id="text20">
        <path
           d="m 63.136292,104.07122 q 0,1.25315 -0.443033,2.32909 -0.430375,1.06328 -1.215177,1.84808 -0.974673,0.97467 -2.303772,1.46834 -1.329099,0.48101 -3.354393,0.48101 h -2.506302 v 7.02524 H 50.807313 V 98.375083 h 5.113868 q 1.696184,0 2.873386,0.291136 1.177203,0.278478 2.088585,0.886066 1.075937,0.721515 1.65821,1.797445 0.59493,1.07594 0.59493,2.72149 z m -2.607567,0.0633 q 0,-0.97467 -0.341768,-1.69618 -0.341768,-0.72151 -1.037963,-1.1772 -0.607588,-0.3924 -1.39239,-0.55696 -0.772143,-0.17721 -1.962004,-0.17721 h -2.480985 v 7.53156 h 2.113901 q 1.51897,0 2.468327,-0.26582 0.949357,-0.27848 1.544287,-0.87341 0.59493,-0.60759 0.835434,-1.27846 0.253161,-0.67088 0.253161,-1.50632 z"
           style="fill:#ff0000;stroke-width:0.59400648"
           id="path22" />
        <path
           d="M 77.490564,110.40027 H 67.072957 q 0,1.30378 0.392401,2.27845 0.392401,0.96202 1.075938,1.58226 0.65822,0.60759 1.556945,0.91139 0.911382,0.30379 1.999978,0.30379 1.443022,0 2.898702,-0.56961 1.468338,-0.58228 2.088584,-1.13923 h 0.126581 v 2.59491 q -1.202518,0.50632 -2.455669,0.84809 -1.253151,0.34177 -2.632882,0.34177 -3.518949,0 -5.493611,-1.89872 -1.974661,-1.91137 -1.974661,-5.41766 0,-3.46831 1.886055,-5.50627 1.898713,-2.03795 4.987287,-2.03795 2.860728,0 4.405014,1.67087 1.556945,1.67087 1.556945,4.74678 z m -2.31643,-1.82277 q -0.01266,-1.87339 -0.949357,-2.8987 -0.92404,-1.02531 -2.822753,-1.02531 -1.911372,0 -3.0506,1.12657 -1.126569,1.12657 -1.278467,2.79744 z"
           style="fill:#ff0000;stroke-width:0.59400648"
           id="path24" />
        <path
           d="m 89.920808,105.6788 h -0.12658 q -0.53164,-0.12658 -1.037964,-0.17721 -0.493665,-0.0633 -1.177202,-0.0633 -1.101254,0 -2.126559,0.49366 -1.025305,0.48101 -1.974662,1.25315 v 10.03787 h -2.37972 v -14.13909 h 2.37972 v 2.08859 q 1.417706,-1.13923 2.493644,-1.60758 1.088595,-0.48101 2.215165,-0.48101 0.620247,0 0.898725,0.038 0.278477,0.0253 0.835433,0.11392 z"
           style="fill:#ff0000;stroke-width:0.59400648"
           id="path26" />
        <path
           d="m 112.81929,117.22298 h -2.37972 v -8.05055 q 0,-0.91138 -0.0886,-1.75947 -0.076,-0.84809 -0.34176,-1.35442 -0.29114,-0.5443 -0.83544,-0.82277 -0.5443,-0.27848 -1.5696,-0.27848 -0.99999,0 -1.99998,0.50632 -0.99999,0.49367 -1.99998,1.26581 0.038,0.29114 0.0633,0.68354 0.0253,0.37974 0.0253,0.75948 v 9.05054 h -2.37972 v -8.05055 q 0,-0.9367 -0.0886,-1.77213 -0.076,-0.84809 -0.34177,-1.35442 -0.29113,-0.54429 -0.83543,-0.81011 -0.544298,-0.27848 -1.569604,-0.27848 -0.974672,0 -1.962003,0.48101 -0.974673,0.481 -1.949346,1.22783 v 10.55685 h -2.379721 v -14.13909 h 2.379721 v 1.5696 q 1.113912,-0.92404 2.215166,-1.44302 1.113911,-0.51898 2.367062,-0.51898 1.443025,0 2.443015,0.60759 1.01264,0.60759 1.50631,1.68353 1.44302,-1.21518 2.63288,-1.74682 1.18986,-0.5443 2.54428,-0.5443 2.32909,0 3.43034,1.41771 1.11391,1.40504 1.11391,3.93666 z"
           style="fill:#ff0000;stroke-width:0.59400648"
           id="path28" />
        <path
           d="m 129.1229,117.22298 h -2.37972 v -1.56961 q -1.20251,0.94936 -2.30377,1.45568 -1.10125,0.50633 -2.43035,0.50633 -2.22782,0 -3.46832,-1.35442 -1.24049,-1.36707 -1.24049,-3.99995 v -9.17712 h 2.37972 v 8.05055 q 0,1.07593 0.10127,1.84808 0.10126,0.75948 0.43037,1.30378 0.34177,0.55696 0.88607,0.81012 0.54429,0.25316 1.58226,0.25316 0.92404,0 2.01263,-0.48101 1.10126,-0.48101 2.05061,-1.22783 v -10.55685 h 2.37972 z"
           style="fill:#ff0000;stroke-width:0.59400648"
           id="path30" />
        <path
           d="m 141.14809,117.0964 q -0.67088,0.17721 -1.46834,0.29113 -0.7848,0.11392 -1.40505,0.11392 -2.16453,0 -3.2911,-1.16454 -1.12657,-1.16454 -1.12657,-3.73414 v -7.5189 h -1.60758 v -1.99998 h 1.60758 v -4.063245 h 2.37972 v 4.063245 h 4.91134 v 1.99998 h -4.91134 v 6.44297 q 0,1.11391 0.0506,1.74681 0.0506,0.62025 0.35443,1.16455 0.27848,0.50632 0.75949,0.74682 0.49366,0.22785 1.49365,0.22785 0.58227,0 1.21518,-0.16456 0.6329,-0.17721 0.91138,-0.29113 h 0.12658 z"
           style="fill:#ff0000;stroke-width:0.59400648"
           id="path32" />
        <path
           d="m 155.02136,117.22298 h -2.36706 v -1.50632 q -0.31646,0.21519 -0.86075,0.60759 -0.53164,0.37975 -1.03797,0.60759 -0.59493,0.29114 -1.36707,0.48101 -0.77215,0.20253 -1.81011,0.20253 -1.91137,0 -3.24047,-1.26581 -1.3291,-1.26581 -1.3291,-3.22781 0,-1.60758 0.68354,-2.59491 0.69619,-0.99999 1.97466,-1.56961 1.29113,-0.56961 3.10123,-0.77214 1.81011,-0.20253 3.88604,-0.30379 v -0.36709 q 0,-0.81011 -0.29114,-1.34175 -0.27848,-0.53164 -0.81012,-0.83544 -0.50632,-0.29113 -1.21518,-0.3924 -0.70885,-0.10126 -1.48099,-0.10126 -0.9367,0 -2.08859,0.25316 -1.15188,0.2405 -2.37972,0.70885 h -0.12658 v -2.41769 q 0.6962,-0.18988 2.01264,-0.41772 1.31644,-0.22785 2.59491,-0.22785 1.49365,0 2.5949,0.25317 1.11392,0.2405 1.92403,0.83543 0.79746,0.58227 1.21518,1.50631 0.41772,0.92404 0.41772,2.29112 z M 152.6543,113.742 v -3.93666 q -1.0886,0.0633 -2.5696,0.18987 -1.46834,0.12658 -2.32909,0.36708 -1.0253,0.29114 -1.6582,0.91139 -0.63291,0.60758 -0.63291,1.68352 0,1.21518 0.73417,1.83542 0.73417,0.60759 2.24048,0.60759 1.25315,0 2.29112,-0.48101 1.03796,-0.49366 1.92403,-1.1772 z"
           style="fill:#ff0000;stroke-width:0.59400648"
           id="path34" />
        <path
           d="m 166.97059,117.0964 q -0.67088,0.17721 -1.46834,0.29113 -0.7848,0.11392 -1.40504,0.11392 -2.16454,0 -3.29111,-1.16454 -1.12657,-1.16454 -1.12657,-3.73414 v -7.5189 h -1.60757 v -1.99998 h 1.60757 v -4.063245 h 2.37972 v 4.063245 h 4.91134 v 1.99998 h -4.91134 v 6.44297 q 0,1.11391 0.0506,1.74681 0.0506,0.62025 0.35442,1.16455 0.27848,0.50632 0.75949,0.74682 0.49366,0.22785 1.49365,0.22785 0.58228,0 1.21518,-0.16456 0.6329,-0.17721 0.91138,-0.29113 h 0.12658 z"
           style="fill:#ff0000;stroke-width:0.59400648"
           id="path36" />
        <path
           d="m 172.41357,100.71683 h -2.68351 v -2.468328 h 2.68351 z m -0.15189,16.50615 h -2.37972 v -14.13909 h 2.37972 z"
           style="fill:#ff0000;stroke-width:0.59400648"
           id="path38" />
        <path
           d="m 188.94503,110.15976 q 0,3.45566 -1.77213,5.45564 -1.77213,1.99998 -4.74678,1.99998 -2.99997,0 -4.7721,-1.99998 -1.75947,-1.99998 -1.75947,-5.45564 0,-3.45565 1.75947,-5.45563 1.77213,-2.01264 4.7721,-2.01264 2.97465,0 4.74678,2.01264 1.77213,1.99998 1.77213,5.45563 z m -2.45566,0 q 0,-2.7468 -1.07594,-4.0759 -1.07594,-1.34176 -2.98731,-1.34176 -1.93669,0 -3.01263,1.34176 -1.06328,1.3291 -1.06328,4.0759 0,2.6582 1.07594,4.03793 1.07594,1.36708 2.99997,1.36708 1.89871,0 2.97465,-1.35442 1.0886,-1.36707 1.0886,-4.05059 z"
           style="fill:#ff0000;stroke-width:0.59400648"
           id="path40" />
        <path
           d="m 204.46385,117.22298 h -2.37972 v -8.05055 q 0,-0.97467 -0.11392,-1.82276 -0.11392,-0.86075 -0.41772,-1.34176 -0.31645,-0.53164 -0.91138,-0.7848 -0.59493,-0.26582 -1.54428,-0.26582 -0.97468,0 -2.03796,0.48101 -1.06328,0.481 -2.03795,1.22783 v 10.55685 h -2.37972 v -14.13909 h 2.37972 v 1.5696 q 1.11391,-0.92404 2.30377,-1.44302 1.18986,-0.51898 2.44301,-0.51898 2.29112,0 3.49364,1.37973 1.20251,1.37973 1.20251,3.97464 z"
           style="fill:#ff0000;stroke-width:0.59400648"
           id="path42" />
      </g>
    </g>
  </g>
</svg>
